<svg version="1.1" id="Layer_1" xmlns="http://www.w3.org/2000/svg" xmlns:xlink="http://www.w3.org/1999/xlink" x="0px" y="0px"
	 width="100%" viewBox="0 0 200 200" enable-background="new 0 0 200 200" xml:space="preserve">
<path fill="#FCFCFC" opacity="1.000000" stroke="none" 
	d="
M89.000000,201.000000 
	C59.333336,201.000000 30.166670,201.000000 1.000004,201.000000 
	C1.000003,134.333344 1.000003,67.666679 1.000001,1.000013 
	C67.666656,1.000009 134.333313,1.000009 200.999969,1.000004 
	C200.999985,67.666649 200.999985,134.333298 201.000000,200.999969 
	C163.833328,201.000000 126.666664,201.000000 89.000000,201.000000 
M65.691704,158.756973 
	C66.202919,157.192978 66.714142,155.628967 67.697128,153.517090 
	C70.123772,146.210205 72.668442,138.938492 74.864967,131.563065 
	C75.246704,130.281265 74.582047,127.592285 73.681229,127.198311 
	C66.815857,124.195740 56.505978,128.671249 53.773643,135.998260 
	C51.467613,142.182083 49.863602,148.627701 47.455589,155.561234 
	C47.875011,157.035431 48.298485,159.791183 48.713242,159.789871 
	C54.166344,159.772629 59.618217,159.366501 64.990372,159.026184 
	C64.990372,159.026184 65.058647,159.079697 65.691704,158.756973 
M86.321457,89.946609 
	C89.265137,81.825981 92.248207,73.719299 95.130211,65.576843 
	C96.082748,62.885651 97.128716,60.919083 100.651337,61.074230 
	C104.114510,61.226757 104.518127,63.503273 105.293999,65.916016 
	C113.939445,92.801018 122.615005,119.676338 131.295242,146.550140 
	C135.717575,160.241562 135.729279,160.237793 149.983566,160.082794 
	C155.426941,160.023621 155.896576,159.435989 154.175262,154.274582 
	C142.139694,118.185448 130.045715,82.115730 118.082878,46.002556 
	C117.089424,43.003529 115.731850,41.658550 112.443062,41.831203 
	C107.456909,42.092953 102.446854,41.899136 97.446953,41.899101 
	C84.762444,41.899014 84.724312,41.885197 80.358673,53.887497 
	C73.829445,71.838112 67.357712,89.809639 60.868595,107.774834 
	C60.092697,109.922920 58.562996,112.323921 62.284916,113.294281 
	C70.890488,115.537857 79.229858,111.055664 82.211830,102.544861 
	C83.584961,98.625862 84.813965,94.656364 86.321457,89.946609 
z"/>
<path fill="#141414" opacity="1.000000" stroke="none" 
	d="
M86.214890,90.328186 
	C84.813965,94.656364 83.584961,98.625862 82.211830,102.544861 
	C79.229858,111.055664 70.890488,115.537857 62.284916,113.294281 
	C58.562996,112.323921 60.092697,109.922920 60.868595,107.774834 
	C67.357712,89.809639 73.829445,71.838112 80.358673,53.887497 
	C84.724312,41.885197 84.762444,41.899014 97.446953,41.899101 
	C102.446854,41.899136 107.456909,42.092953 112.443062,41.831203 
	C115.731850,41.658550 117.089424,43.003529 118.082878,46.002556 
	C130.045715,82.115730 142.139694,118.185448 154.175262,154.274582 
	C155.896576,159.435989 155.426941,160.023621 149.983566,160.082794 
	C135.729279,160.237793 135.717575,160.241562 131.295242,146.550140 
	C122.615005,119.676338 113.939445,92.801018 105.293999,65.916016 
	C104.518127,63.503273 104.114510,61.226757 100.651337,61.074230 
	C97.128716,60.919083 96.082748,62.885651 95.130211,65.576843 
	C92.248207,73.719299 89.265137,81.825981 86.214890,90.328186 
z"/>
<path fill="#F05FBF" opacity="1.000000" stroke="none" 
	d="
M47.948868,154.957443 
	C49.863602,148.627701 51.467613,142.182083 53.773643,135.998260 
	C56.505978,128.671249 66.815857,124.195740 73.681229,127.198311 
	C74.582047,127.592285 75.246704,130.281265 74.864967,131.563065 
	C72.668442,138.938492 70.123772,146.210205 67.149246,153.956055 
	C66.087128,155.956573 65.572884,157.518143 65.058640,159.079697 
	C65.058647,159.079697 64.990372,159.026184 64.558426,159.017212 
	C60.711594,159.005234 57.267899,158.725281 53.889874,159.076645 
	C50.476524,159.431702 48.722267,158.072433 47.948868,154.957443 
z"/>
<path fill="#D771B2" opacity="1.000000" stroke="none" 
	d="
M47.702229,155.259338 
	C48.722267,158.072433 50.476524,159.431702 53.889874,159.076645 
	C57.267899,158.725281 60.711594,159.005234 64.598434,159.033051 
	C59.618217,159.366501 54.166344,159.772629 48.713242,159.789871 
	C48.298485,159.791183 47.875011,157.035431 47.702229,155.259338 
z"/>
<path fill="#D771B2" opacity="1.000000" stroke="none" 
	d="
M65.375168,158.918335 
	C65.572884,157.518143 66.087128,155.956573 66.913361,154.229996 
	C66.714142,155.628967 66.202919,157.192978 65.375168,158.918335 
z"/>
</svg>